<?xml version="1.0" encoding="UTF-8"?>
<svg id="_圖層_2" data-name="圖層 2" xmlns="http://www.w3.org/2000/svg" viewBox="0 0 66.66 42.93">
  <g id="HF">
    <g>
      <path d="M32.52,9.08c12.76,0,23.12,10.35,23.3,23.19H9.21c.17-12.84,10.54-23.19,23.3-23.19" fill="#e50012" fill-rule="evenodd"/>
      <path d="M32.52,9.08c12.76,0,23.12,10.35,23.3,23.19H9.21c.17-12.84,10.54-23.19,23.3-23.19Z" fill="none" stroke="#e50012" stroke-miterlimit="22.93" stroke-width=".11"/>
      <polygon points="16.06 23.4 24.32 31.66 40.95 31.66 49.48 23.58 32.59 11.55 16.06 23.4" fill="#fff" fill-rule="evenodd"/>
      <path d="M33.37,.75l.34,.6c-.09-.21-.2-.41-.34-.6" fill="#fff" fill-rule="evenodd"/>
      <path d="M57.12,15.01l1.21-.3c-.41,.03-.84,.16-1.21,.3" fill="#fff" fill-rule="evenodd"/>
      <path d="M51.68,16.34c-.07,0-.09-.04-.13,.02,0,.02-.02,.03-.03,.04l.22-.05s-.04,0-.05,0" fill="#fff" fill-rule="evenodd"/>
      <path d="M54.91,15.51s-.03,.04-.05,.06l.15-.04s-.06,0-.1-.02" fill="#fff" fill-rule="evenodd"/>
      <path d="M50.84,16.51s-.04,.04-.06,.06l.08-.02s-.01-.03-.02-.05" fill="#fff" fill-rule="evenodd"/>
      <path d="M12.87,40.37l-.25,2.38H6.42v-.19l4.86-7.01h-1.78c-.21,0-.38,0-.52,.01-.14,0-.27,.02-.38,.04-.24,.04-.51,.24-.81,.59-.3,.34-.52,.71-.68,1.09h-.38l.23-2.15h5.78v.19l-4.86,7.01h1.84c.31,0,.64-.02,.98-.06,.35-.04,.57-.12,.68-.22,.24-.22,.45-.5,.66-.82,.21-.32,.35-.61,.45-.85h.38Z" fill="#e50012" fill-rule="evenodd"/>
      <path d="M20,40.5l-.15,2.24h-6.41v-.38c.11,0,.25-.02,.44-.05,.18-.02,.3-.05,.35-.07,.12-.05,.2-.12,.24-.21,.04-.09,.07-.2,.07-.33v-5.48c0-.12-.02-.22-.06-.31-.04-.09-.12-.17-.25-.23-.09-.05-.23-.09-.39-.12-.17-.03-.3-.06-.4-.06v-.38h5.97v1.83h-.41c-.07-.27-.23-.56-.47-.87-.24-.3-.47-.47-.69-.5-.12-.02-.25-.03-.4-.03-.15,0-.34,0-.53,0h-1.21v3.03h.87c.28,0,.48-.02,.61-.08,.13-.05,.24-.14,.34-.26,.08-.1,.15-.24,.21-.42,.05-.17,.09-.34,.11-.49h.41v2.99h-.41c-.01-.17-.05-.35-.12-.55-.06-.19-.13-.33-.2-.42-.11-.14-.24-.23-.38-.28-.14-.04-.33-.06-.57-.06h-.87v2.28c0,.23,.01,.41,.05,.54,.03,.13,.1,.24,.19,.3,.09,.07,.22,.11,.39,.13,.16,.02,.4,.03,.7,.03h.47c.2,0,.36,0,.5-.02,.14-.01,.28-.04,.42-.08,.15-.04,.25-.09,.32-.15,.17-.17,.34-.43,.52-.78,.19-.35,.3-.61,.36-.77h.39Z" fill="#e50012" fill-rule="evenodd"/>
      <path d="M34.15,42.74h-3.2v-.38c.09,0,.21-.02,.37-.03,.17-.02,.28-.04,.34-.06,.11-.04,.19-.11,.24-.2,.05-.09,.08-.2,.08-.34v-2.71h-3.63v2.65c0,.12,.02,.23,.06,.31,.04,.09,.12,.16,.25,.23,.06,.03,.17,.07,.33,.1,.16,.03,.28,.05,.37,.06v.38h-3.2v-.38c.09,0,.21-.02,.38-.03,.17-.02,.28-.04,.34-.06,.11-.04,.18-.11,.24-.2,.05-.09,.08-.2,.08-.34v-5.5c0-.11-.02-.22-.07-.31-.05-.1-.13-.17-.24-.23-.1-.05-.22-.08-.36-.12-.14-.03-.26-.06-.36-.06v-.38h3.2v.38c-.1,0-.22,.02-.37,.05-.15,.03-.26,.06-.33,.08-.12,.04-.21,.12-.25,.22-.04,.1-.06,.2-.06,.33v2.36h3.63v-2.31c0-.11-.02-.22-.07-.31-.04-.1-.13-.17-.24-.23-.1-.05-.22-.08-.36-.12-.14-.03-.26-.06-.36-.06v-.38h3.2v.38c-.1,0-.23,.02-.37,.05-.15,.03-.26,.06-.33,.08-.13,.04-.21,.12-.25,.22-.04,.1-.06,.2-.06,.33v5.5c0,.12,.02,.23,.06,.31,.04,.09,.12,.16,.25,.23,.06,.03,.17,.07,.33,.1,.16,.03,.28,.05,.37,.06v.38Z" fill="#e50012" fill-rule="evenodd"/>
      <path d="M41.48,36.02c.34,.35,.6,.78,.8,1.27,.19,.5,.29,1.04,.29,1.64s-.1,1.16-.3,1.65c-.19,.5-.46,.92-.81,1.27-.34,.35-.73,.61-1.18,.8-.45,.19-.92,.28-1.43,.28-.54,0-1.04-.1-1.49-.3-.46-.2-.85-.47-1.17-.83-.33-.35-.58-.77-.77-1.27-.18-.5-.28-1.03-.28-1.6,0-.62,.1-1.17,.29-1.66,.19-.48,.47-.91,.81-1.26,.34-.35,.74-.62,1.19-.8,.45-.19,.92-.28,1.42-.28s.99,.1,1.44,.28c.45,.19,.85,.46,1.18,.8m-.81,5.41c.2-.32,.35-.7,.44-1.11,.09-.41,.14-.87,.14-1.38s-.05-1-.16-1.44c-.1-.44-.25-.81-.45-1.12-.2-.3-.45-.54-.75-.71-.3-.17-.65-.26-1.03-.26-.43,0-.81,.1-1.11,.3-.3,.2-.55,.46-.74,.79-.18,.31-.32,.69-.41,1.11-.09,.42-.13,.87-.13,1.33,0,.52,.05,.98,.14,1.4,.09,.42,.24,.78,.45,1.11,.19,.32,.44,.56,.74,.74,.3,.18,.65,.27,1.07,.27,.39,0,.74-.09,1.05-.27,.31-.18,.57-.43,.76-.75" fill="#e50012" fill-rule="evenodd"/>
      <path d="M51.45,35.5c-.1,0-.26,.03-.47,.09-.21,.05-.36,.11-.45,.16-.13,.09-.22,.26-.26,.52-.04,.25-.07,.58-.07,.97v5.58h-.47l-4.68-6.24v3.93c0,.44,.03,.78,.08,1.02,.05,.24,.14,.41,.26,.51,.08,.08,.26,.15,.52,.22,.26,.07,.43,.11,.52,.11v.38h-3.17v-.38c.1,0,.26-.04,.49-.1,.23-.07,.38-.12,.44-.17,.13-.1,.21-.26,.26-.46,.05-.2,.07-.56,.07-1.06v-3.76c0-.16-.03-.33-.09-.49-.06-.17-.14-.29-.23-.38-.13-.12-.31-.22-.53-.31-.22-.08-.41-.13-.54-.14v-.38h2.21l4.34,5.81v-3.63c0-.44-.03-.79-.09-1.02-.05-.24-.14-.4-.25-.47-.1-.07-.27-.14-.5-.2-.23-.06-.41-.1-.53-.11v-.38h3.14v.38Z" fill="#e50012" fill-rule="evenodd"/>
      <path d="M59.55,39.7c-.09,0-.2,.03-.35,.05-.15,.02-.27,.05-.36,.1-.11,.05-.19,.13-.23,.23-.05,.1-.07,.21-.07,.35v.59c0,.43,0,.72,0,.87,0,.15,.01,.27,.02,.37-.48,.21-.96,.38-1.44,.49-.48,.12-.95,.17-1.41,.17-.49,0-.97-.09-1.43-.27-.45-.18-.85-.45-1.2-.78-.34-.34-.61-.76-.82-1.24-.2-.49-.31-1.03-.31-1.64s.1-1.12,.29-1.62c.2-.49,.47-.93,.82-1.29,.35-.36,.76-.64,1.23-.84,.48-.2,.99-.3,1.53-.3,.44,0,.82,.05,1.14,.15,.32,.11,.6,.23,.85,.38l.22-.37h.44l.05,2.66h-.44c-.08-.29-.17-.58-.28-.87-.11-.28-.26-.54-.44-.76-.18-.22-.39-.41-.65-.54-.26-.13-.56-.2-.92-.2-.39,0-.73,.08-1.04,.23-.31,.16-.57,.39-.8,.7-.22,.3-.39,.67-.51,1.11-.12,.44-.18,.94-.18,1.49,0,.48,.06,.94,.18,1.37,.11,.43,.28,.8,.51,1.11,.23,.31,.51,.57,.85,.75,.34,.18,.72,.28,1.15,.28,.32,0,.61-.05,.87-.15,.27-.1,.45-.2,.56-.31,.03-.19,.04-.38,.05-.56v-.9c0-.15-.02-.28-.06-.4-.04-.12-.13-.2-.26-.26-.12-.05-.28-.09-.49-.12-.2-.03-.36-.04-.48-.05v-.39h3.38v.39Z" fill="#e50012" fill-rule="evenodd"/>
      <path d="M39.99,26.82h-1.77c-.2-.62-.37-1.08-.51-1.39l-.72,.14c.19,.55,.33,1.03,.4,1.46l.37-.09v.75h5.19v-.88h-1.99v-6.03h1.89v-.88h-4.86v.88h1.98v6.03Zm-4.79-1.1l-.79-.07c-.05,.76-.24,1.5-.55,2.22l.87,.28c.27-.64,.43-1.45,.47-2.43m31.29,6.55l.17,.08h-1.38s-10.11,0-10.11,0h0s-44.99,0-44.99,0h0s-10.17,0-10.17,0l10.43-6.63,.34-.21c.18-.58,.37-1.15,.6-1.72L4.95,15.42l-.55-.72,11.43,2.05c.24-.25,.48-.5,.73-.74,0,0,0,0,0,0,.16-.15,.32-.3,.48-.45,.03-.03,.06-.05,.09-.08,.06-.06,.12-.11,.19-.17l-1.44-9.87-.11-.8,9.09,6.2c.4-.14,.8-.27,1.22-.4,0,0,.01,0,.02,0,.13-.04,.27-.07,.4-.11,0,0,.02,0,.03,0,.26-.07,.53-.13,.79-.2L32.99,0l5.85,10.42c.06,.02,.13,.04,.19,.05h0c.53,.16,1.04,.33,1.56,.53l8.91-6.09,.67-.46-1.68,11.59s.05,.05,.08,.07c.02,.02,.03,.03,.05,.05,.11,.11,.23,.23,.34,.34,.02,.03,.04,.05,.07,.07,.1,.11,.21,.22,.31,.33,.03,.03,.05,.06,.08,.09,0,0,.01,0,.01,.01l10.64-2.64,.87-.22-6.94,10.61c.02,.05,.03,.1,.05,.15,.03,.07,.05,.15,.07,.22,.04,.1,.07,.21,.1,.31,.02,.06,.03,.12,.05,.17l11.18,6.06,1.04,.58Zm-57.02-.62c.02-1.66,.22-3.29,.59-4.85l-7.63,4.85h7.04Zm1.97-8.93c.89-1.97,2.05-3.8,3.43-5.43l-8.8-1.58,5.37,7.01ZM49.24,5.95l-7.51,5.13c2.28,.98,4.36,2.33,6.19,3.95l1.32-9.08ZM32.99,1.45l-4.53,8.07c1.32-.25,2.68-.38,4.06-.38,1.76,0,3.47,.21,5.11,.61,0,0,.01,0,.02,0L32.99,1.45ZM16.69,6.13l1.19,8.21c1.74-1.41,3.69-2.57,5.8-3.44l-6.99-4.77Zm24.34,25.61H24.4c-2.74-2.74-5.65-5.39-8.26-8.26l16.53-11.85,16.89,12.03-8.54,8.08Zm9.32-14.23c1.51,1.79,2.73,3.83,3.59,6.05l5.41-8.28-9,2.23Zm5.31,14.14h8.22l-8.78-4.75c.36,1.53,.55,3.12,.55,4.75m-20-5.94c.11,.62,.17,1.25,.17,1.9v.11l.92-.22c-.06-.77-.15-1.4-.29-1.87l-.79,.08Zm-12.05,2.5h.97v-.69h4.93v.69h.98v-8.64h-6.87v8.64Zm.97-5.26h4.93v-2.43h-4.93v2.43Zm0,3.62h4.93v-2.67h-4.93v2.67Zm9.7-2.15c.11,0,.24-.02,.37-.03,.66-.76,1.11-1.35,1.35-1.76-.61,.08-1.23,.14-1.86,.19l-.22-.85c.08,0,.17,.01,.28,.01,.07,0,.1,0,.1-.01,.58-.86,1.02-1.74,1.33-2.66l.93,.24c-.36,.9-.8,1.7-1.31,2.4,.17-.01,.34-.03,.52-.04,.16-.02,.39-.04,.7-.06,.19-.25,.4-.61,.62-1.09l.87,.33c-.76,1.38-1.51,2.47-2.25,3.27,.74-.09,1.24-.17,1.48-.21-.11-.26-.21-.46-.32-.6l.73-.17c.3,.45,.57,1.01,.79,1.7l-.8,.22c-.03-.28-.07-.42-.13-.42-1.14,.21-2.23,.35-3.28,.43l-.27-.88c.15,0,.28,.01,.37,.01" fill="#e50012" fill-rule="evenodd"/>
    </g>
  </g>
</svg>